# AST/ASF file generated using VICON BodyLanguage
# -----------------------------------------------
:version 1.10
:name VICON
:units
  mass 1.0
  length 0.45
  angle deg
:documentation
   .ast/.asf automatically generated from VICON data using
   VICON BodyBuilder and BodyLanguage model FoxedUp or BRILLIANT.MOD
:root
   order TX TY TZ RX RY RZ
   axis XYZ
   position 0 0 0  
   orientation 0 0 0 
:bonedata
  begin
     id 1 
     name lhipjoint
     direction 0.662698 -0.695252 0.27831 
     length 2.53073 
     axis 0 0 0  XYZ
  end
  begin
     id 2 
     name lfemur
     direction 0.34202 -0.939693 0  
     length 7.16147  
     axis 0 0 20  XYZ
    dof rx ry rz
    limits (-160.0 20.0)
           (-70.0 70.0)
           (-60.0 70.0)
  end
  begin
     id 3 
     name ltibia
     direction 0.34202 -0.939693 0   
     length 7.63967   
     axis 0 0 20   XYZ
    dof rx
    limits (-10.0 170.0)
  end
  begin
     id 4 
     name lfoot
     direction 0.0938457 -0.257721 0.961651   
     length 1.89793   
     axis -90 7.62852e-016 20   XYZ
    dof rx rz
    limits (-45.0 90.0)
           (-70.0 20.0)
  end
  begin
     id 5 
     name ltoes
     direction -0.00116841 -0.0030592 0.999995   
     length 0.955649   
     axis -90 7.62852e-016 20   XYZ
    dof rx
    limits (-90.0 20.0)
  end
  begin
     id 6 
     name rhipjoint
     direction -0.649445 -0.705948 0.282592   
     length 2.49238  
     axis 0 0 0  XYZ 
  end
  begin
     id 7 
     name rfemur
     direction -0.34202 -0.939693 0   
     length 6.90728   
     axis 0 0 -20   XYZ
    dof rx ry rz
    limits (-160.0 20.0)
           (-70.0 70.0)
           (-70.0 60.0)
  end
  begin
     id 8 
     name rtibia
     direction -0.34202 -0.939693 0   
     length 7.72868   
     axis 0 0 -20   XYZ
    dof rx
    limits (-10.0 170.0)
 end
 begin
     id 9 
     name rfoot
     direction -0.0920068 -0.252865 0.963117   
     length 1.97476  
     axis -90 -7.62852e-016 -20   XYZ
    dof rx rz
    limits (-45.0 90.0)
           (-20.0 70.0)
  end
  begin
     id 10 
     name rtoes
     direction 0.000391322 0.00230649 0.999997   
     length 0.992641   
     axis -90 -7.62852e-016 -20   XYZ
    dof rx
    limits (-90.0 20.0)
  end
  begin
     id 11 
     name lowerback
     direction -0.00875327 0.998321 -0.0572635   
     length 2.20024   
     axis 0 0 0   XYZ
    dof rx ry rz
    limits (-20.0 45.0)
           (-30.0 30.0)
           (-30.0 30.0)
  end
  begin
     id 12 
     name upperback
     direction 0.00753931 0.999972 -0.000360425   
     length 2.20538   
     axis 0 0 0   XYZ
    dof rx ry rz
    limits (-20.0 45.0)
           (-30.0 30.0)
           (-30.0 30.0)
  end
  begin
     id 13 
     name thorax
     direction 0.0117767 0.999601 0.0256663   
     length 2.21508   
     axis 0 0 0   XYZ
    dof rx ry rz
    limits (-20.0 45.0)
           (-30.0 30.0)
           (-30.0 30.0)
  end
  begin
     id 14 
     name lowerneck
     direction 0.060228 0.994909 0.0807986   
     length 1.7607   
     axis 0 0 0   XYZ
    dof rx ry rz
    limits (-20.0 45.0)
           (-30.0 30.0)
           (-30.0 30.0)
  end
  begin
     id 15 
     name upperneck
     direction -0.0563647 0.959594 -0.275685   
     length 1.75612   
     axis 0 0 0   XYZ
    dof rx ry rz
    limits (-20.0 45.0)
           (-30.0 30.0)
           (-30.0 30.0)
  end
  begin
     id 16
     name head
     direction -0.0161544 0.99458 -0.102714  
     length 1.79288  
     axis 0 0 0   XYZ
    dof rx ry rz
    limits (-20.0 45.0)
           (-30.0 30.0)
           (-30.0 30.0)
  end
  begin
     id 17 
     name lclavicle
     direction 0.93913 0.332189 -0.087669  
     length 3.52087  
     axis 0 0 0   XYZ
    dof ry rz
    limits (-20.0 10.0)
           (0.0 20.0)
  end
  begin
     id 18 
     name lhumerus
     direction 1 -4.48974e-011 -2.70836e-027   
     length 5.35289   
     axis -180 -30 -90   XYZ
    dof rx ry rz
    limits (-60.0 90.0)
           (-90.0 90.0)
           (-90.0 90.0)
  end
  begin
     id 19
     name lradius
     direction 1 -4.48961e-011 -9.76021e-027   
     length 3.27727   
     axis -180 -30 -90   XYZ
    dof rx
    limits (-10.0 170.0)
  end
  begin
     id 20
     name lwrist
     direction 1 -4.49103e-011 -2.23668e-026   
     length 1.63864   
     axis 1.44924e-014 90 90   XYZ
    dof ry
    limits (-180.0 0.0)
 end
  begin
     id 21 
     name lhand
     direction 1 3.0697e-005 0.000161777   
     length 0.54443   
     axis 2.85318e-014 90 90   XYZ
    dof rx rz
    limits (-90.0 90.0)
           (-45.0 45.0)
  end
  begin
     id 22 
     name lfingers
     direction 1 -4.49027e-011 -8.9447e-026   
     length 0.438912   
     axis 5.70628e-014 90 90   XYZ
    dof rx
    limits (0.0 90.0)
  end
  begin
     id 23
     name lthumb
     direction 0.707058 2.6516e-005 0.707156   
     length 0.630274   
     axis -90 45 -3.53137e-014   XYZ
    dof rx rz
    limits (-45.0 45.0)
           (-45.0 45.0)
  end
  begin
     id 24 
     name rclavicle
     direction -0.95274 0.284984 -0.105215   
     length 3.43401  
     axis 0 0 0   XYZ 
    dof ry rz
    limits (-10.0 20.0)
           (-20.0 0.0)
  end
  begin
     id 25 
     name rhumerus
     direction -0.999999 -0.000575019 -0.00106829  
     length 5.52077   
     axis -180 30 90   XYZ
    dof rx ry rz
    limits (-90.0 60.0)
           (-90.0 90.0)
           (-90.0 90.0)
  end
  begin
     id 26 
     name rradius
     direction -1 -4.4879e-011 -6.35415e-027   
     length 3.32364   
     axis -180 30 90   XYZ
    dof rx
    limits (-10.0 170.0)
  end
  begin
     id 27 
     name rwrist
     direction -1 -4.49048e-011 -9.98542e-027   
     length 1.66182   
     axis 6.32482e-015 -90 -90   XYZ
    dof ry
    limits (-180.0 0.0)
  end
  begin
     id 28
     name rhand
     direction -1 -4.48978e-011 -1.99771e-026   
     length 0.732235   
     axis 1.27479e-014 -90 -90   XYZ
    dof rx rz
    limits (-90.0 90.0)
           (-45.0 45.0)
  end
  begin
     id 29
     name rfingers
     direction -1 -4.49144e-011 -3.99245e-026   
     length 0.590347   
     axis 2.5496e-014 -90 -90   XYZ
    dof rx
    limits (0.0 90.0)
  end
  begin
     id 30
     name rthumb
     direction -0.707107 -6.35121e-011 0.707107   
     length 0.847624   
     axis -90 -45 -2.82974e-014   XYZ
    dof rx rz
    limits (-45.0 45.0)
           (-45.0 45.0)
  end
:hierarchy
  begin
    root lhipjoint rhipjoint lowerback
    lhipjoint lfemur
    lfemur ltibia
    ltibia lfoot
    lfoot ltoes
    rhipjoint rfemur
    rfemur rtibia
    rtibia rfoot
    rfoot rtoes
    lowerback upperback
    upperback thorax
    thorax lowerneck lclavicle rclavicle
    lowerneck upperneck
    upperneck head
    lclavicle lhumerus
    lhumerus lradius
    lradius lwrist
    lwrist lhand lthumb
    lhand lfingers
    rclavicle rhumerus
    rhumerus rradius
    rradius rwrist
    rwrist rhand rthumb
    rhand rfingers
  end

#!OML:ASF G:\Work\Work\Patient Classification 1\Elijah\terrain1\Elijah.ASF
:FULLY-SPECIFIED
:DEGREES
50
root 15.7734 23.3799 -11.2095 7.19501 1.06592 -3.17796
lowerback 0 0 0
upperback 0 0 0
thorax 0 0 0
lowerneck 0 0 0
upperneck 0 0 0
head 0 0 0
rclavicle 0 0
rhumerus 0 0 0
rradius 0
rwrist 0
rhand 0 0
rfingers 0
rthumb 0 0
lclavicle 0 0
lhumerus 0 0 0
lradius 0
lwrist 0
lhand 0 0
lfingers 0
lthumb 0 0
rfemur -14.8191 -0.696364 27.9637
rtibia 32.2876
rfoot -9.28314 -4.35908
rtoes -14.8322
lfemur -50.583 2.8429 -19.9042
ltibia 67.783
lfoot -7.43526 -13.0658
ltoes -10.0863
51
root 15.7793 23.4154 -11.0806 7.26657 0.948513 -3.19459
lowerback 7.71019 1.55044 4.25782
upperback 0.0405571 2.4944 1.16982
thorax -4.15446 1.1601 -1.45199
lowerneck -19.4545 8.87688 8.48952
upperneck 17.4507 13.071 -14.1302
head 10.361 5.13192 -4.36107
rclavicle -5.11871e-015 1.15295e-014
rhumerus -34.1205 3.61165 -85.7334
rradius 37.1845
rwrist -2.10071
rhand -15.1972 22.9941
rfingers 7.12502
rthumb 10.9746 -6.6991
lclavicle -5.11871e-015 1.15295e-014
lhumerus -41.7793 23.6987 69.7563
lradius 19.6883
lwrist -9.63782
lhand -14.2769 29.3273
lfingers 7.12502
lthumb 11.8621 58.9713
rfemur -14.0178 -0.779076 27.9492
rtibia 31.5088
rfoot -8.96277 -4.18315
rtoes -14.6625
lfemur -50.429 2.49815 -19.7242
ltibia 65.2452
lfoot -7.30242 -13.8182
ltoes -10.5253
52
root 15.7948 23.4562 -10.9435 7.24597 0.740109 -3.27689
lowerback 6.6185 1.53314 4.53851
upperback 0.618481 2.40689 1.09328
thorax -2.93163 1.14691 -1.63049
lowerneck -19.611 8.87092 8.56756
upperneck 17.0541 13.0317 -14.3823
head 10.2717 5.09871 -4.46114
rclavicle 6.06293e-015 7.95139e-015
rhumerus -33.3067 3.76613 -85.9494
rradius 37.0787
rwrist -2.18485
rhand -14.6095 22.2893
rfingers 7.12502
rthumb 11.5413 -7.37294
lclavicle 6.06293e-015 7.95139e-015
lhumerus -41.5165 25.0171 69.05
lradius 19.3879
lwrist -10.6225
lhand -13.3588 29.2811
lfingers 7.12502
lthumb 12.7473 58.872
rfemur -13.0736 -0.953095 27.9484
rtibia 30.6754
rfoot -8.71919 -3.96332
rtoes -15.543
lfemur -50.0867 2.18767 -19.4879
ltibia 62.6933
lfoot -7.58444 -14.308
ltoes -9.31667
53
root 15.7854 23.466 -10.8623 7.5554 1.1544 -3.35133
lowerback 6.69031 1.51858 4.28354
upperback 0.368203 2.38669 1.21819
thorax -3.24822 1.13089 -1.3649
lowerneck -19.3435 8.81435 8.86696
upperneck 16.8705 12.9472 -14.756
head 10.1996 5.06032 -4.6637
rclavicle 1.36167e-014 9.34288e-015
rhumerus -33.4982 3.65816 -85.8773
rradius 37.2312
rwrist -2.20646
rhand -13.4195 19.9639
rfingers 7.12502
rthumb 12.6888 -9.6306
lclavicle 1.36167e-014 9.34288e-015
lhumerus -41.945 24.4958 69.2078
lradius 19.7373
lwrist -10.3511
lhand -12.8634 29.8977
lfingers 7.12502
lthumb 13.2249 59.4582
rfemur -12.7659 -1.15982 28.1608
rtibia 29.9494
rfoot -8.20929 -4.30832
rtoes -16.4036
lfemur -50.4359 1.48289 -19.1426
ltibia 60.2271
lfoot -7.35213 -14.7293
ltoes -7.0439
54
root 15.7953 23.4822 -10.7324 7.68413 0.371726 -3.43558
lowerback 6.61859 1.62371 4.34709
upperback 0.165956 2.53132 1.12057
thorax -3.4029 1.19511 -1.51536
lowerneck -18.4392 8.889 9.08372
upperneck 16.2112 13.0348 -15.0994
head 9.85737 5.14615 -4.81877
rclavicle -1.66482e-014 3.57812e-015
rhumerus -33.6959 3.93112 -86.2454
rradius 37.1158
rwrist -2.03224
rhand -14.12 21.523
rfingers 7.12502
rthumb 12.0134 -8.11219
lclavicle -1.66482e-014 3.57812e-015
lhumerus -42.898 24.6455 68.4117
lradius 19.7715
lwrist -10.1134
lhand -12.9451 28.5183
lfingers 7.12502
lthumb 13.1461 58.0839
rfemur -12.0284 -0.888539 28.1131
rtibia 29.1244
rfoot -7.66457 -3.96702
rtoes -17.3701
lfemur -50.1497 1.5947 -18.8508
ltibia 57.8405
lfoot -7.9047 -14.5812
ltoes -8.42093
55
root 15.7887 23.4925 -10.6267 7.80151 0.372833 -3.5289
lowerback 6.59129 1.58474 4.27912
upperback 0.145076 2.47469 1.14952
thorax -3.41655 1.16779 -1.442
lowerneck -19.7701 9.43552 8.42175
upperneck 17.6296 13.904 -14.1804
head 10.5911 5.4794 -4.20955
rclavicle 4.75592e-014 3.1408e-014
rhumerus -33.4633 3.95168 -86.3939
rradius 36.9234
rwrist -2.08035
rhand -14.494 22.1647
rfingers 7.12502
rthumb 11.6527 -7.49129
lclavicle 4.75592e-014 3.1408e-014
lhumerus -42.9692 24.6024 68.4246
lradius 19.8567
lwrist -9.91223
lhand -12.6683 28.8907
lfingers 7.12502
lthumb 13.4129 58.4389
rfemur -11.4874 -0.785001 28.2538
rtibia 28.5173
rfoot -7.36119 -4.13417
rtoes -17.4614
lfemur -50.0308 1.12743 -18.3978
ltibia 55.4784
lfoot -8.06077 -14.357
ltoes -9.4474
56
root 15.8071 23.5271 -10.4738 7.80788 -0.610316 -3.61545
lowerback 5.85989 1.88787 4.32267
upperback 0.46122 2.82569 1.07177
thorax -2.65369 1.36195 -1.54051
lowerneck -19.7098 9.25378 8.56606
upperneck 17.148 13.6118 -14.4951
head 10.4096 5.34302 -4.39477
rclavicle -1.22253e-014 8.54774e-015
rhumerus -33.2505 3.9981 -86.571
rradius 36.9745
rwrist -2.11163
rhand -14.6207 22.112
rfingers 7.12502
rthumb 11.5306 -7.55082
lclavicle -1.22253e-014 8.54774e-015
lhumerus -43.0745 24.9914 68.0855
lradius 19.819
lwrist -10.1351
lhand -12.363 28.2641
lfingers 7.12502
lthumb 13.7072 57.7927
rfemur -10.575 -0.395474 28.089
rtibia 27.7072
rfoot -7.02309 -3.53068
rtoes -17.2108
lfemur -49.3536 1.20901 -17.9548
ltibia 53.136
lfoot -8.2181 -13.6922
ltoes -8.31098
57
root 15.8048 23.5342 -10.3739 8.02895 -0.46293 -3.59635
lowerback 4.50645 2.24958 4.85003
upperback 2.13539 3.19007 0.8126
thorax -0.105651 1.62386 -2.0158
lowerneck -24.399 8.93364 7.10928
upperneck 17.5926 13.249 -13.7841
head 11.221 4.9182 -3.86052
rclavicle -5.85421e-014 -6.16232e-015
rhumerus -30.2208 2.60235 -86.0794
rradius 36.9726
rwrist -2.01318
rhand -14.3724 21.867
rfingers 7.12502
rthumb 11.77 -7.78234
lclavicle -5.85421e-014 -6.16232e-015
lhumerus -39.3022 26.4034 69.1463
lradius 18.9894
lwrist -11.5345
lhand -11.7492 28.6486
lfingers 7.12502
lthumb 14.2986 58.1363
rfemur -10.0462 -0.508276 28.1038
rtibia 26.9847
rfoot -6.72841 -3.48584
rtoes -17.1585
lfemur -49.3175 0.580296 -17.5896
ltibia 50.8516
lfoot -8.01469 -13.0882
ltoes -9.33713
58
root 15.8269 23.548 -10.2303 7.69469 -0.792978 -3.69324
lowerback 6.35 1.66781 4.55416
upperback 0.0097371 2.59046 0.971837
thorax -3.39504 1.21812 -1.78296
lowerneck -19.2705 9.11925 8.34189
upperneck 17.4365 13.471 -14.1527
head 10.365 5.30936 -4.27815
rclavicle -2.8625e-014 -2.38542e-015
rhumerus -34.4209 4.64993 -87.1918
rradius 37.3802
rwrist -2.08183
rhand -13.9983 21.6256
rfingers 7.12502
rthumb 12.1307 -8.00274
lclavicle -2.8625e-014 -2.38542e-015
lhumerus -44.6965 25.7752 66.4199
lradius 19.6888
lwrist -10.5232
lhand -11.2163 29.0297
lfingers 7.12502
lthumb 14.8122 58.4804
rfemur -8.69305 -0.692084 28.0121
rtibia 26.1831
rfoot -6.59781 -2.95802
rtoes -16.4734
lfemur -48.3942 0.0732618 -17.1288
ltibia 48.6729
lfoot -8.34932 -11.9048
ltoes -12.1714
59
root 15.8369 23.5581 -10.1047 7.76223 -0.517528 -3.7443
lowerback 5.75944 1.42134 4.56709
upperback -0.0898206 2.236 1.06196
thorax -3.19188 1.04619 -1.64973
lowerneck -17.3673 9.17515 8.96809
upperneck 16.1458 13.5595 -15.2203
head 9.71105 5.42223 -4.78075
rclavicle -1.09083e-014 8.54774e-015
rhumerus -34.7225 5.11773 -87.4331
rradius 37.2902
rwrist -2.18542
rhand -13.8955 21.5203
rfingers 7.12502
rthumb 12.2298 -8.10214
lclavicle -1.09083e-014 8.54774e-015
lhumerus -45.562 25.9256 65.9325
lradius 19.8353
lwrist -10.1059
lhand -12.0577 25.6275
lfingers 7.12502
lthumb 14.0014 55.136
rfemur -7.99755 -0.863001 28.0459
rtibia 25.566
rfoot -6.46582 -2.99376
rtoes -15.6264
lfemur -48.0472 -0.818949 -16.6026
ltibia 46.5927
lfoot -8.33015 -11.0071
ltoes -12.7349
